<svg id="Camada_1" data-name="Camada 1" xmlns="http://www.w3.org/2000/svg" viewBox="0 0 100 90"><defs><style>.cls-1{fill:#306eb5;}</style></defs><path class="cls-1" d="M18.35,29.05l1,2.9h9.11l-2.63-1.7L29.26,32h2.89l-5-3.84,5.5,3.35c.24-.34.5-.68.76-1l-4.73-4.38,5.19,3.82q.41-.48.84-.93L30.41,24.2l4.84,4.26c.3-.29.61-.58.92-.85l-3.9-5.13,4.45,4.66c.32-.27.65-.52,1-.77l-3.44-5.45,4,5c.35-.24.7-.47,1.05-.68l-3-5.73L40,24.9l1.11-.59-2.44-5.95L41.72,24c.38-.17.76-.33,1.16-.48L41,17.37l2.58,5.89,1.19-.38-1.36-6.29,2.06,6.1c.4-.11.81-.2,1.22-.28L45.85,16l1.52,6.26c.41-.07.82-.13,1.24-.17l-.26-6.44,1,6.37Q50,22,50.58,22l.3-6.44L51.3,22c.42,0,.83,0,1.25.05l.87-6.39-.15,6.44c.41,0,.83.09,1.24.15l1.42-6.28-.71,6.4,1.23.27,2-6.14-1.27,6.32q.61.16,1.2.36l2.49-5.93L59,23.39c.39.15.78.31,1.16.48l3-5.7-2.34,6c.37.18.75.38,1.11.58l3.48-5.42-2.85,5.77,1.06.67,3.94-5.09-3.35,5.5c.34.24.67.49,1,.75l4.37-4.73-3.81,5.19.93.84,4.76-4.33-4.25,4.84c.29.3.58.6.85.92l5.13-3.91-4.66,4.45c.27.32.52.65.77,1l5.45-3.44-5,4,.12.18h2.26l4-2.08L73,32h10.1l.93-2.48L81,28.3c-.21-.35-.42-.7-.64-1.05L80.94,24l-3.58-.67c-.16-.19-.33-.37-.5-.56l0-3.64-4,0-.16-.13L72.09,15,68,15.69l-1.36-3.87L62.72,13.2l-2-3.58-3.61,2L54.5,8.49l-3.21,2.63L48.18,8.45l-2.7,3.14L42,9.5l-2.12,3.57L36,11.63l-1.46,3.88-4-.76-.76,4.08-4.11,0,0,4-.16.18-3.89.64.6,3.61-.41.65Z"/><path class="cls-1" d="M83.87,60.11l-1-2.89H73.74l2.63,1.69L73,57.22H70.06l5,3.84-5.44-3.32c-.23.36-.47.71-.71,1.06l4.63,4.28-5-3.71c-.26.34-.53.68-.82,1L71.8,65l-4.62-4.07c-.3.33-.6.65-.92,1l3.68,4.85-4.17-4.38c-.33.3-.67.6-1,.88l3.19,5-3.71-4.63c-.36.27-.73.54-1.11.8l2.69,5.21-3.23-4.85c-.39.24-.79.48-1.19.7l2.18,5.34-2.75-5q-.61.31-1.26.6l1.68,5.42L59,66.63c-.43.18-.88.35-1.33.5l1.19,5.45-1.78-5.26c-.46.14-.92.26-1.39.37l.7,5.45-1.29-5.31c-.48.09-.95.18-1.44.25l.22,5.41-.81-5.34c-.49.06-1,.1-1.47.12l-.25,5.35L51,68.3h-.55l-.93,0-.71,5.25.12-5.28c-.5,0-1-.08-1.48-.15l-1.16,5.12.58-5.2c-.5-.08-1-.17-1.47-.29l-1.59,5,1-5.09c-.49-.13-1-.27-1.45-.42l-2,4.77,1.46-5c-.48-.17-1-.36-1.41-.56L39,71l1.88-4.8c-.46-.21-.91-.44-1.35-.68l-2.78,4.32,2.28-4.61c-.43-.25-.86-.52-1.28-.8L34.63,68.5l2.68-4.4c-.41-.29-.81-.6-1.2-.92L32.61,67l3.06-4.16q-.57-.5-1.11-1l-3.83,3.48,3.43-3.89c-.35-.36-.68-.74-1-1.12L29,63.42l3.78-3.61c-.31-.39-.61-.79-.89-1.19l-4.45,2.8,4.12-3.29c-.2-.3-.39-.6-.57-.91H30.1l-4,2.07,3.12-2.07H19.08l-.93,2.47,3.11,1.17q.3.53.63,1l-.61,3.28,3.58.67c.16.18.32.37.49.55l0,3.64,4,0,.16.12.64,3.93,4.1-.68,1.36,3.87L39.49,76l2,3.58,3.61-2,2.61,3.17,3.2-2.63L54,80.72l2.7-3.15,3.53,2.09,2.11-3.57,3.84,1.44,1.46-3.88,4,.76.77-4.08,4.1,0,0-4,.16-.17,3.89-.65L80.07,62l.42-.65Z"/><path class="cls-1" d="M67.14,41.37a2.6,2.6,0,0,1,3,.22,3,3,0,0,1,.41,2.73c-.23.92-.44,1.86-.58,2.8a1,1,0,0,0,.34.8c.12.09.54-.05.73-.2a1.58,1.58,0,0,0,.53-.77c.34-1.47.62-3,.91-4.44a.68.68,0,0,0-.16-.46c-.34-.42-.29-.67.12-1a1.1,1.1,0,0,0,.44-.68c.25-1.87.36-1.81,2-1.92,1.14-.08,1.18-.09,1,1a5.35,5.35,0,0,1-.19,1.06c-.11.34,0,.4.31.48s.53.27.53.42a.54.54,0,0,1-.62.57c-.43,0-.61.25-.67.61-.25,1.41-.49,2.83-.73,4.25V47c0,.36-.18.81.3,1S76,47.51,76,47.08c.1-.59.17-1.18.27-1.76a5.42,5.42,0,0,1,2.2-3.81,3.14,3.14,0,0,1,3.63-.31,1.77,1.77,0,0,1,.65,1.19,3,3,0,0,1-1.69,3.2c-.57.31-1.2.51-1.78.79a.62.62,0,0,0-.32.41c-.14,1.1.72,1.69,1.93,1.24a6.87,6.87,0,0,0,1.58-1c.67-.5.55-1.34.72-2a31.44,31.44,0,0,0,.58-3.36.81.81,0,0,1,.83-.77c.38,0,.76,0,1.14,0s.86.13.93.63a8,8,0,0,1,1.63-.54,1.26,1.26,0,0,1,1,.43,1.36,1.36,0,0,1,.34,1.44,2,2,0,0,1-.58.71.82.82,0,0,1-1.32-.22c-.17-.27-.28-.68-.67-.47a1.7,1.7,0,0,0-.78.79,12.83,12.83,0,0,0-.41,1.86c-.26,1.31-.51,2.62-.81,3.92a.76.76,0,0,1-.52.41c-.5.06-1,0-1.5,0s-.67-.17-.58-.65c0-.19,0-.39.05-.69-2,1.43-4,2.32-6.15.23-.36.26-.78.59-1.22.88a2.53,2.53,0,0,1-3.1-.39c-.29-.35-.52-.27-.73,0a2.52,2.52,0,0,1-2.53.7,1.73,1.73,0,0,1-1.51-1.65c0-.83.19-1.65.27-2.48s.18-1.55.19-2.32c0-.48-.3-.6-.67-.26a2.65,2.65,0,0,0-.63.92A12.27,12.27,0,0,0,66,45.71c-.28,1.24-.53,2.49-.84,3.72a.85.85,0,0,1-.56.46,8.29,8.29,0,0,1-1.32,0c-.72,0-.76-.06-.74-.81,0-.11,0-.22,0-.4-.44.28-.81.53-1.2.76a4.44,4.44,0,0,1-3.65.3,2.23,2.23,0,0,1-.94-.85c-.26-.35-.4-.45-.78-.11a5.7,5.7,0,0,1-5.23,1.35,2.79,2.79,0,0,1-2.1-2,10.24,10.24,0,0,1,.21-5.88,8.73,8.73,0,0,1,1.49-3.21,4.92,4.92,0,0,1,2.69-2,4.82,4.82,0,0,1,2.69,0,1.89,1.89,0,0,1,1.54,1.49c.13.78.37,1.71-.51,2.23a1.93,1.93,0,0,1-1.34.11c-.47-.13-.38-.57-.19-.95a1.79,1.79,0,0,0,.32-.81c0-.32-.13-.79-.35-.91a1.36,1.36,0,0,0-1,.09,4.06,4.06,0,0,0-1.56,2.12,13.65,13.65,0,0,0-1.08,5.72,2,2,0,0,0,3,2,9.79,9.79,0,0,0,1.17-.58,1.45,1.45,0,0,0,.72-1.16,7.21,7.21,0,0,1,1.71-4.23,3.94,3.94,0,0,1,4-1,1.65,1.65,0,0,1,.85,1,3,3,0,0,1-1.15,3.24,4.17,4.17,0,0,1-2.17,1.07c-.18,0-.45.34-.46.54,0,.9.54,1.73,1.7,1.23a11,11,0,0,0,1.54-.86c.74-.47.78-1.31.94-2,.25-1.12.41-2.27.6-3.41a.86.86,0,0,1,1-.84c.42,0,.85,0,1.26,0A5.48,5.48,0,0,1,67.14,41.37ZM79.33,45a2.41,2.41,0,0,0,1.8-2.63.35.35,0,0,0-.65-.12A3.92,3.92,0,0,0,79.33,45ZM61.14,42.32a3.39,3.39,0,0,0-1.65,2.88A2.16,2.16,0,0,0,61.14,42.32Z"/><path class="cls-1" d="M61.36,26.76c.59.53,1.16,1.08,1.78,1.57a1.23,1.23,0,0,0,.75.09.9.9,0,0,1,1,.69c.27,1.13.89,2.21.68,3.42a7.42,7.42,0,0,1-.56,1.53c0,.09-.28.13-.43.14a6.76,6.76,0,0,1-.9,0,1.12,1.12,0,0,0-1.32.93,2.52,2.52,0,0,1-3.23,1.43,3,3,0,0,1-1.55-1.39.89.89,0,0,0-.9-.52l-12.13,0a.73.73,0,0,0-.8.54,2.42,2.42,0,0,1-2.1,1.61,2.46,2.46,0,0,1-2.54-1.21.82.82,0,0,0-.78-.5C37.6,35.1,36.82,35,36,35a.6.6,0,0,1-.63-.51,8.42,8.42,0,0,1-.3-1.46,3.09,3.09,0,0,1,.32-1c0-.08.12-.13.13-.2.27-1.4,1.43-1.63,2.53-1.9,1.74-.42,3.51-.72,5.24-1.19,1-.27,1.85-.79,2.8-1.14,1.56-.58,2.95-1.63,4.64-1.8,1.3-.13,2.6-.17,3.9-.17s2.84.07,4.26.15c.67,0,1.34.16,2,.21S61.74,26.14,61.36,26.76ZM54.8,28.44v.09c1-.13,2-.23,3-.39.2,0,.51-.25.54-.42.06-.42-.65-1.15-1.1-1.18-.86-.07-1.72-.14-2.58-.14-2,0-1.56-.27-1.68,1.65a.13.13,0,0,1,0,.06c0,.32.11.42.42.4C53.84,28.47,54.32,28.46,54.8,28.44Zm-2.68-2.07c-.69.15-1.22.31-1.76.39a11.82,11.82,0,0,0-3.9,1.39c-.44.23-.31.46,0,.67a.86.86,0,0,0,.56.11c1.35-.08,2.7-.21,4.05-.27a.86.86,0,0,0,.92-.75C52,27.47,52.05,27,52.12,26.37Zm7.89,7a.83.83,0,0,0-.89.83.92.92,0,0,0,.9.92,1,1,0,0,0,1-.92A.92.92,0,0,0,60,33.37ZM41.42,35.19a.88.88,0,0,0,.87-.83,1.16,1.16,0,0,0-.94-.94,1,1,0,0,0-.9.94A.88.88,0,0,0,41.42,35.19Zm-5.26-3.86,0,.17c.86.25,1.06.18,1.61-.66Zm23.56-4.27,0-.2-1-.06,0,.16.43.52Zm3.71,2.25c.48.59.9.62,1.25.06Z"/><path class="cls-1" d="M31.32,49.18c-2.31,1.54-3.65,1.54-4.43,0l-.48.42c-1,.88-2.4,1.23-3.38.26a1.75,1.75,0,0,1-.52-1.13,22.39,22.39,0,0,1,.34-2.95c.18-1.08.45-2.15.65-3.22s.43-1.24,1.47-1.23h.12c1.49,0,1.47,0,1.15,1.43-.26,1.17-.45,2.35-.68,3.52a7.3,7.3,0,0,0-.26,1.1,3.78,3.78,0,0,0,.25,1,2.67,2.67,0,0,0,.79-.4,2,2,0,0,0,.49-.87c.25-1.05.42-2.11.66-3.16.16-.71.37-1.41.58-2.12a.63.63,0,0,1,.73-.47c.44,0,.88,0,1.32,0,.6,0,.75.25.61.85-.38,1.62-.74,3.25-1.11,4.88a1.2,1.2,0,0,0-.06.41c.05.3.14.59.21.88a3.61,3.61,0,0,0,1-.32,1.3,1.3,0,0,0,.43-.69,13.67,13.67,0,0,0,.43-1.55c.2-.89.4-1.79.56-2.69,0-.24-.14-.5-.16-.76s-.08-.69.05-.77c.69-.44.67-1.18.88-1.82a1,1,0,0,1,.84-.78c.43-.06.86-.16,1.29-.25s.7.08.64.57-.17,1.26-.26,1.91c.48.11.9.25.69.82-.06.16-.27.37-.4.36-.7,0-.76.51-.86.94-.32,1.35-.58,2.72-.86,4.08-.09.42-.07.83.44,1s1.09-.44,1.18-.92.2-1.09.31-1.64a5.94,5.94,0,0,1,2.36-4c1-.74,3.19-1,4,.14a6.41,6.41,0,0,1,.41,1c0,.12.14.31.21.32a.68.68,0,0,0,.39-.19c.15-.15.25-.38.42-.5a1.53,1.53,0,0,1,.54-.1c0,.17.12.38.06.5-.36.56-.76,1.09-1.12,1.65a2.54,2.54,0,0,0-.49,1,6.09,6.09,0,0,1-1.5,3.5c-1.12,1.27-3.53,1.77-4.9.29-.28-.31-.4-.27-.74,0a5.34,5.34,0,0,1-1.78.9A2,2,0,0,1,31.32,49.18ZM38.6,47a2.08,2.08,0,0,0,0,.66,1.16,1.16,0,0,0,.44.64.69.69,0,0,0,.66-.19,8.24,8.24,0,0,0,1-1.7,1.93,1.93,0,0,0,.06-1.87c-.17-.28.11-.81.16-1.23,0-.2,0-.49-.08-.6a.66.66,0,0,0-.59,0,1.14,1.14,0,0,0-.49.41A7.13,7.13,0,0,0,38.6,47Z"/><path class="cls-1" d="M13,52.28c-.21-.46-.39-.81-.53-1.17a4,4,0,0,1,.23-2.68c.43-1.37,1.06-2.69,1.62-4a5.85,5.85,0,0,1,.43-.76c-.83-.26-1.45.17-1.46.92s-.28.92-1,1-1.11-.21-1.18-.86A1.65,1.65,0,0,1,12.05,43,5.68,5.68,0,0,1,15,42.17a1.2,1.2,0,0,0,1.12-.62,15.49,15.49,0,0,1,3.52-3.75,5,5,0,0,1,.78-.36l0-.17c-.18,0-.36,0-.53,0l-7.51,0c-.14,0-.31,0-.42,0a3.66,3.66,0,0,1-.51-.46c.17-.17.31-.45.49-.48a9,9,0,0,1,1.78-.19Q21,36,28.35,36c.21,0,.51,0,.63.09a.84.84,0,0,1,.19.68.64.64,0,0,1-.51.34c-1.44,0-2.88,0-4.32.06h-1c-.15.76-.26,1.44-.41,2.12-.24,1.14-.51,2.28-.77,3.42-.56,2.39-1.11,4.77-1.69,7.14a.69.69,0,0,1-.48.41c-.55.05-1.12,0-1.68,0-.4,0-.53-.22-.46-.59.23-1.11.46-2.22.7-3.33.13-.58.32-1.15.41-1.73a.85.85,0,0,0-.26-.71,5.53,5.53,0,0,0-1.41-.45c-.12,0-.35.17-.42.31a17.56,17.56,0,0,0-1.06,2.39,30.29,30.29,0,0,0-1,4.09c-.33,2-.24,2.05,1.77,2l11.88-.21a1,1,0,0,1,.74.22c.31.38,0,.85-.56.86-1.42,0-2.84,0-4.26,0l-11.95.09a1.49,1.49,0,0,1-.6,0c-.16-.07-.37-.29-.36-.42a.67.67,0,0,1,.38-.48A7.36,7.36,0,0,1,13,52.28Zm7-13.12-.17-.09a11,11,0,0,0-2.05,2.69c-.28.49-.15.78.38.92l.46.13c.5.14.73-.05.81-.57.11-.74.3-1.47.45-2.22C20,39.74,20,39.45,20.05,39.16Z"/><path class="cls-1" d="M50.49,55.31a15.42,15.42,0,0,0-.19-1.54,1.15,1.15,0,0,0-1-.94,2.71,2.71,0,0,0-2.95,1.22,7.09,7.09,0,0,0-.42,1.63,4.48,4.48,0,0,1-.29.68c-.29-.16-.71-.25-.85-.49a2.34,2.34,0,0,1,.65-2.5A5.8,5.8,0,0,1,49.25,52a2.94,2.94,0,0,1,2.9,2.26,6.13,6.13,0,0,1-.3,3.9,5.62,5.62,0,0,1-1.47,2.54,1.81,1.81,0,0,1-1.65.5,4.59,4.59,0,0,0-1.88-.06,1.43,1.43,0,0,1-.77,0,.65.65,0,0,1-.32-.5c.22-1.27.47-2.54.73-3.81.22-1,.46-2.05.73-3.07.1-.4,1.47-.69,1.72-.39a.63.63,0,0,1,.08.45c-.18,1-.37,2-.58,3s-.42,1.78-.6,2.67c-.09.46.29.71.75.58a2,2,0,0,0,1.25-1.49c.33-1,.51-2.11.75-3.18Z"/><path class="cls-1" d="M62.73,53.21a2.08,2.08,0,0,0-1,1.51c-.07.33,0,.68-.06,1,0,.16-.08.43-.17.45a.89.89,0,0,1-.62-.08,1.51,1.51,0,0,1-.36-1.85,4.37,4.37,0,0,1,3.87-2.37c.6,0,.75.19.64.78-.28,1.42-.55,2.85-.83,4.28s-.52,2.69-.81,4a2.91,2.91,0,0,1-3.75,2.38,1.6,1.6,0,0,1-1.11-1.86,1.39,1.39,0,0,1,1.36-1.37,2.1,2.1,0,0,1,.88.1c.2.12.28.46.42.7-.2.09-.4.27-.58.26a.86.86,0,0,0-1,.56.78.78,0,0,0,.45,1,.81.81,0,0,0,1-.56,13.72,13.72,0,0,0,.4-1.56c.38-2,.74-4,1.12-6,.08-.43.2-.85.3-1.28Z"/><path class="cls-1" d="M37,53.53a2,2,0,0,0-1.35,1.61,5.35,5.35,0,0,0-.07,1.07c0,.44-.32.58-.7.35a1.48,1.48,0,0,1-.49-1.71,3.55,3.55,0,0,1,2-2.06,15.85,15.85,0,0,1,1.81-.57c.49-.15.87.14.78.63-.14.86-.35,1.72-.53,2.57-.07.31-.15.62-.22.92-.28,1.27-.55,2.53-.83,3.79-.13.55,0,.86.61,1s1.35.67,2.05.92a4.86,4.86,0,0,0,1.56.26c.45,0,.56.15.51.56a1.48,1.48,0,0,1-2.49,1c-.66-.47-1.28-1-2-1.43a7.86,7.86,0,0,0-1.78-.79c-.4-.12-.55-.3-.48-.67.29-1.47.58-2.93.88-4.39C36.54,55.61,36.76,54.65,37,53.53Z"/><path class="cls-1" d="M84.25,34.75c-2.1,0-4.2,0-6.3,0-2.68,0-5.35.11-8,.16-.4,0-.77,0-.89-.51s.15-.91.83-.92c2.44,0,4.89-.08,7.33-.09H90.45c.42,0,.75,0,.76.58s-.15.68-.66.67c-2.1,0-4.2,0-6.3,0Z"/><path class="cls-1" d="M20.36,35.1H9.8c-.65,0-.77-.14-.69-.72a.52.52,0,0,1,.59-.52l2.71,0,18.37-.06c.44,0,.91-.05.92.62,0,.47-.14.7-.65.7-1.42,0-2.84,0-4.26,0Z"/><path class="cls-1" d="M29.2,55.47l1.92,0c.38,0,.59-.17.58-.59s-.17-.6-.57-.62c-.24,0-.48,0-.72,0l-16.06.27-4.74,0c-.51,0-.75.28-.57.72a.89.89,0,0,0,.69.34c2.94,0,5.88,0,8.83,0v-.11H29.2Z"/><path class="cls-1" d="M80.76,55H70.25c-.68,0-.94-.24-.73-.72a1,1,0,0,1,.71-.48c.71-.07,1.44,0,2.16,0l18.79-.09c.77,0,.83.07.82.67s-.34.54-.73.54H80.76Z"/><path class="cls-1" d="M80.13,36.86H72.27c-.39,0-.79,0-.8-.54s.34-.64.79-.64l14-.06c.66,0,1.32,0,2,0,.39,0,.67.08.67.56s-.27.55-.66.55l-7.15.06h-1Z"/><path class="cls-1" d="M80.72,52.8H72.91c-.43,0-1.09.13-1.09-.5s.67-.6,1.11-.6c4.5,0,9,0,13.51-.07h2.4c.38,0,.68,0,.66.53s-.29.55-.68.55h-8.1Z"/><path class="cls-1" d="M66.94,60.1A1,1,0,1,1,65,60a.92.92,0,0,1,1.07-1A1,1,0,0,1,66.94,60.1Z"/><path class="cls-1" d="M40.16,59.3a.94.94,0,0,1,1,1c0,.59-.39.94-1.07.94a.9.9,0,0,1-1-1A1,1,0,0,1,40.16,59.3Z"/><path class="cls-1" d="M53.86,61.09a.88.88,0,0,1-1-1,.95.95,0,1,1,1.88,0A.86.86,0,0,1,53.86,61.09Z"/><path class="cls-1" d="M63.43,29.31l1.25.06"/></svg>